<mxfile host="embed.diagrams.net" modified="2024-04-03T23:41:43.829Z" agent="Mozilla/5.0 (X11; Linux x86_64; rv:124.0) Gecko/20100101 Firefox/124.0" etag="sDkWVkjUqFZjWMw9OLT1" version="24.2.2" type="embed">
  <diagram name="Page-1" id="5f0bae14-7c28-e335-631c-24af17079c00">
    <mxGraphModel grid="1" page="1" gridSize="10" guides="1" tooltips="1" connect="1" arrows="1" fold="1" pageScale="1" pageWidth="1100" pageHeight="850" background="none" math="0" shadow="0">
      <root>
        <mxCell id="0" />
        <mxCell id="1" parent="0" />
        <mxCell id="39150e848f15840c-1" value="C01" style="verticalAlign=top;align=left;spacingTop=8;spacingLeft=2;spacingRight=12;shape=cube;size=10;direction=south;fontStyle=4;html=1;rounded=0;shadow=0;comic=0;labelBackgroundColor=none;strokeWidth=1;fontFamily=Verdana;fontSize=12" vertex="1" parent="1">
          <mxGeometry x="185" y="130" width="360" height="170" as="geometry" />
        </mxCell>
        <mxCell id="39150e848f15840c-3" value="C03" style="verticalAlign=top;align=left;spacingTop=8;spacingLeft=2;spacingRight=12;shape=cube;size=10;direction=south;fontStyle=4;html=1;rounded=0;shadow=0;comic=0;labelBackgroundColor=none;strokeWidth=1;fontFamily=Verdana;fontSize=12" vertex="1" parent="1">
          <mxGeometry x="630" y="372.5" width="285" height="100" as="geometry" />
        </mxCell>
        <mxCell id="39150e848f15840c-5" value="Core.Server" style="shape=component;align=left;spacingLeft=36;rounded=0;shadow=0;comic=0;labelBackgroundColor=none;strokeWidth=1;fontFamily=Verdana;fontSize=12;html=1;" vertex="1" parent="1">
          <mxGeometry x="335" y="160" width="125" height="35" as="geometry" />
        </mxCell>
        <mxCell id="39150e848f15840c-6" value="API" style="ellipse;whiteSpace=wrap;html=1;rounded=0;shadow=0;comic=0;labelBackgroundColor=none;strokeWidth=1;fontFamily=Verdana;fontSize=12;align=center;" vertex="1" parent="1">
          <mxGeometry x="485" y="203.5" width="35" height="35" as="geometry" />
        </mxCell>
        <mxCell id="39150e848f15840c-10" value="Vending" style="shape=component;align=left;spacingLeft=36;rounded=0;shadow=0;comic=0;labelBackgroundColor=none;strokeWidth=1;fontFamily=Verdana;fontSize=12;html=1;" vertex="1" parent="1">
          <mxGeometry x="690" y="411.5" width="95" height="34" as="geometry" />
        </mxCell>
        <mxCell id="39150e848f15840c-14" style="edgeStyle=elbowEdgeStyle;rounded=0;html=1;labelBackgroundColor=none;startArrow=none;startFill=0;startSize=8;endArrow=none;endFill=0;endSize=16;fontFamily=Verdana;fontSize=12;entryX=1;entryY=0.5;entryDx=0;entryDy=0;" edge="1" parent="1" source="39150e848f15840c-6" target="39150e848f15840c-5">
          <mxGeometry relative="1" as="geometry" />
        </mxCell>
        <mxCell id="39150e848f15840c-15" style="edgeStyle=orthogonalEdgeStyle;rounded=0;html=1;labelBackgroundColor=none;startArrow=none;startFill=0;startSize=8;endArrow=open;endFill=0;endSize=16;fontFamily=Verdana;fontSize=12;dashed=1;entryX=1;entryY=0.5;entryDx=0;entryDy=0;entryPerimeter=0;exitX=0.142;exitY=0.5;exitDx=0;exitDy=0;exitPerimeter=0;" edge="1" parent="1" source="39150e848f15840c-5" target="3c6Egb_IVi21xw1lHmp9-1">
          <mxGeometry relative="1" as="geometry">
            <mxPoint x="280" y="255" as="targetPoint" />
          </mxGeometry>
        </mxCell>
        <mxCell id="3c6Egb_IVi21xw1lHmp9-1" value="DB1" style="shape=cylinder3;whiteSpace=wrap;html=1;boundedLbl=1;backgroundOutline=1;size=15;" vertex="1" parent="1">
          <mxGeometry x="215" y="186" width="50" height="70" as="geometry" />
        </mxCell>
        <mxCell id="3c6Egb_IVi21xw1lHmp9-28" style="edgeStyle=orthogonalEdgeStyle;rounded=0;orthogonalLoop=1;jettySize=auto;html=1;endArrow=none;endFill=0;" edge="1" parent="1" source="3c6Egb_IVi21xw1lHmp9-9" target="39150e848f15840c-3">
          <mxGeometry relative="1" as="geometry">
            <Array as="points">
              <mxPoint x="570" y="423" />
              <mxPoint x="570" y="423" />
            </Array>
          </mxGeometry>
        </mxCell>
        <mxCell id="3c6Egb_IVi21xw1lHmp9-29" style="edgeStyle=orthogonalEdgeStyle;rounded=0;orthogonalLoop=1;jettySize=auto;html=1;endArrow=none;endFill=0;entryX=0;entryY=0;entryDx=55;entryDy=165;entryPerimeter=0;" edge="1" parent="1" source="3c6Egb_IVi21xw1lHmp9-9" target="3c6Egb_IVi21xw1lHmp9-20">
          <mxGeometry relative="1" as="geometry">
            <Array as="points">
              <mxPoint x="580" y="400" />
              <mxPoint x="580" y="305" />
              <mxPoint x="630" y="305" />
            </Array>
          </mxGeometry>
        </mxCell>
        <mxCell id="3c6Egb_IVi21xw1lHmp9-9" value="C02" style="verticalAlign=top;align=left;spacingTop=8;spacingLeft=2;spacingRight=12;shape=cube;size=10;direction=south;fontStyle=4;html=1;rounded=0;shadow=0;comic=0;labelBackgroundColor=none;strokeWidth=1;fontFamily=Verdana;fontSize=12" vertex="1" parent="1">
          <mxGeometry x="185" y="360" width="335" height="110" as="geometry" />
        </mxCell>
        <mxCell id="3c6Egb_IVi21xw1lHmp9-10" value="Integration" style="shape=component;align=left;spacingLeft=36;rounded=0;shadow=0;comic=0;labelBackgroundColor=none;strokeWidth=1;fontFamily=Verdana;fontSize=12;html=1;" vertex="1" parent="1">
          <mxGeometry x="305" y="405" width="120" height="35" as="geometry" />
        </mxCell>
        <mxCell id="3c6Egb_IVi21xw1lHmp9-11" value="" style="ellipse;whiteSpace=wrap;html=1;rounded=0;shadow=0;comic=0;labelBackgroundColor=none;strokeWidth=1;fontFamily=Verdana;fontSize=12;align=center;" vertex="1" parent="1">
          <mxGeometry x="450" y="412.5" width="20" height="20" as="geometry" />
        </mxCell>
        <mxCell id="3c6Egb_IVi21xw1lHmp9-12" style="edgeStyle=elbowEdgeStyle;rounded=0;html=1;labelBackgroundColor=none;startArrow=none;startFill=0;startSize=8;endArrow=none;endFill=0;endSize=16;fontFamily=Verdana;fontSize=12;" edge="1" parent="1" source="3c6Egb_IVi21xw1lHmp9-11" target="3c6Egb_IVi21xw1lHmp9-10">
          <mxGeometry relative="1" as="geometry" />
        </mxCell>
        <mxCell id="3c6Egb_IVi21xw1lHmp9-13" style="edgeStyle=orthogonalEdgeStyle;rounded=0;html=1;labelBackgroundColor=none;startArrow=none;startFill=0;startSize=8;endArrow=open;endFill=0;endSize=16;fontFamily=Verdana;fontSize=12;dashed=1;entryX=1;entryY=0.5;entryDx=0;entryDy=0;entryPerimeter=0;exitX=0.128;exitY=0.5;exitDx=0;exitDy=0;exitPerimeter=0;" edge="1" parent="1" source="3c6Egb_IVi21xw1lHmp9-10" target="3c6Egb_IVi21xw1lHmp9-14">
          <mxGeometry relative="1" as="geometry">
            <mxPoint x="240" y="450" as="targetPoint" />
          </mxGeometry>
        </mxCell>
        <mxCell id="3c6Egb_IVi21xw1lHmp9-14" value="DB2" style="shape=cylinder3;whiteSpace=wrap;html=1;boundedLbl=1;backgroundOutline=1;size=15;" vertex="1" parent="1">
          <mxGeometry x="215" y="387.5" width="50" height="70" as="geometry" />
        </mxCell>
        <mxCell id="39150e848f15840c-12" style="edgeStyle=none;rounded=0;html=1;dashed=1;labelBackgroundColor=none;startArrow=none;startFill=0;startSize=8;endArrow=open;endFill=0;endSize=16;fontFamily=Verdana;fontSize=12;entryX=1;entryY=1;entryDx=0;entryDy=0;exitX=0;exitY=0.5;exitDx=0;exitDy=0;" edge="1" parent="1" source="3c6Egb_IVi21xw1lHmp9-18" target="3c6Egb_IVi21xw1lHmp9-11">
          <mxGeometry relative="1" as="geometry">
            <mxPoint x="767.4738324526252" y="249.6891771061155" as="targetPoint" />
          </mxGeometry>
        </mxCell>
        <mxCell id="3c6Egb_IVi21xw1lHmp9-15" style="edgeStyle=none;rounded=0;html=1;dashed=1;labelBackgroundColor=none;startArrow=none;startFill=0;startSize=8;endArrow=open;endFill=0;endSize=16;fontFamily=Verdana;fontSize=12;entryX=0.5;entryY=1;entryDx=0;entryDy=0;exitX=0.5;exitY=0;exitDx=0;exitDy=0;" edge="1" parent="1" source="3c6Egb_IVi21xw1lHmp9-11" target="39150e848f15840c-6">
          <mxGeometry relative="1" as="geometry">
            <mxPoint x="735" y="375" as="sourcePoint" />
            <mxPoint x="515" y="425" as="targetPoint" />
          </mxGeometry>
        </mxCell>
        <mxCell id="3c6Egb_IVi21xw1lHmp9-18" value="" style="ellipse;whiteSpace=wrap;html=1;rounded=0;shadow=0;comic=0;labelBackgroundColor=none;strokeWidth=1;fontFamily=Verdana;fontSize=12;align=center;" vertex="1" parent="1">
          <mxGeometry x="650" y="418.5" width="20" height="20" as="geometry" />
        </mxCell>
        <mxCell id="3c6Egb_IVi21xw1lHmp9-19" style="edgeStyle=elbowEdgeStyle;rounded=0;html=1;labelBackgroundColor=none;startArrow=none;startFill=0;startSize=8;endArrow=none;endFill=0;endSize=16;fontFamily=Verdana;fontSize=12;exitX=1;exitY=0.5;exitDx=0;exitDy=0;entryX=0.143;entryY=0.507;entryDx=0;entryDy=0;entryPerimeter=0;" edge="1" parent="1" source="3c6Egb_IVi21xw1lHmp9-18" target="39150e848f15840c-10">
          <mxGeometry relative="1" as="geometry">
            <mxPoint x="620" y="428.5" as="targetPoint" />
          </mxGeometry>
        </mxCell>
        <mxCell id="3c6Egb_IVi21xw1lHmp9-20" value="C04" style="verticalAlign=top;align=left;spacingTop=8;spacingLeft=2;spacingRight=12;shape=cube;size=10;direction=south;fontStyle=4;html=1;rounded=0;shadow=0;comic=0;labelBackgroundColor=none;strokeWidth=1;fontFamily=Verdana;fontSize=12" vertex="1" parent="1">
          <mxGeometry x="630" y="262.5" width="165" height="80" as="geometry" />
        </mxCell>
        <mxCell id="3c6Egb_IVi21xw1lHmp9-21" value="Web" style="shape=component;align=left;spacingLeft=36;rounded=0;shadow=0;comic=0;labelBackgroundColor=none;strokeWidth=1;fontFamily=Verdana;fontSize=12;html=1;" vertex="1" parent="1">
          <mxGeometry x="690" y="290" width="75" height="35" as="geometry" />
        </mxCell>
        <mxCell id="3c6Egb_IVi21xw1lHmp9-22" value="" style="ellipse;whiteSpace=wrap;html=1;rounded=0;shadow=0;comic=0;labelBackgroundColor=none;strokeWidth=1;fontFamily=Verdana;fontSize=12;align=center;" vertex="1" parent="1">
          <mxGeometry x="650" y="297.5" width="20" height="20" as="geometry" />
        </mxCell>
        <mxCell id="3c6Egb_IVi21xw1lHmp9-23" style="edgeStyle=elbowEdgeStyle;rounded=0;html=1;labelBackgroundColor=none;startArrow=none;startFill=0;startSize=8;endArrow=none;endFill=0;endSize=16;fontFamily=Verdana;fontSize=12;exitX=1;exitY=0.5;exitDx=0;exitDy=0;entryX=0.143;entryY=0.507;entryDx=0;entryDy=0;entryPerimeter=0;" edge="1" parent="1" source="3c6Egb_IVi21xw1lHmp9-22" target="3c6Egb_IVi21xw1lHmp9-21">
          <mxGeometry relative="1" as="geometry">
            <mxPoint x="620" y="307.5" as="targetPoint" />
          </mxGeometry>
        </mxCell>
        <mxCell id="3c6Egb_IVi21xw1lHmp9-24" style="edgeStyle=none;rounded=0;html=1;dashed=1;labelBackgroundColor=none;startArrow=none;startFill=0;startSize=8;endArrow=open;endFill=0;endSize=16;fontFamily=Verdana;fontSize=12;entryX=1;entryY=0;entryDx=0;entryDy=0;exitX=0;exitY=0.5;exitDx=0;exitDy=0;" edge="1" parent="1" source="3c6Egb_IVi21xw1lHmp9-22" target="3c6Egb_IVi21xw1lHmp9-11">
          <mxGeometry relative="1" as="geometry">
            <mxPoint x="715" y="436" as="sourcePoint" />
            <mxPoint x="515" y="435" as="targetPoint" />
          </mxGeometry>
        </mxCell>
        <mxCell id="3c6Egb_IVi21xw1lHmp9-27" style="edgeStyle=orthogonalEdgeStyle;rounded=0;orthogonalLoop=1;jettySize=auto;html=1;entryX=0;entryY=0.5;entryDx=0;entryDy=0;entryPerimeter=0;endArrow=none;endFill=0;" edge="1" parent="1" source="39150e848f15840c-1" target="3c6Egb_IVi21xw1lHmp9-9">
          <mxGeometry relative="1" as="geometry">
            <Array as="points">
              <mxPoint x="353" y="332" />
            </Array>
          </mxGeometry>
        </mxCell>
        <mxCell id="mJqfasri3hnP24MwwVVL-1" value="Core.Client" style="shape=component;align=left;spacingLeft=36;rounded=0;shadow=0;comic=0;labelBackgroundColor=none;strokeWidth=1;fontFamily=Verdana;fontSize=12;html=1;" vertex="1" parent="1">
          <mxGeometry x="335" y="245" width="125" height="35" as="geometry" />
        </mxCell>
        <mxCell id="mJqfasri3hnP24MwwVVL-4" value="DB3" style="shape=cylinder3;whiteSpace=wrap;html=1;boundedLbl=1;backgroundOutline=1;size=15;" vertex="1" parent="1">
          <mxGeometry x="840" y="393.5" width="50" height="70" as="geometry" />
        </mxCell>
        <mxCell id="mJqfasri3hnP24MwwVVL-6" style="edgeStyle=orthogonalEdgeStyle;rounded=0;html=1;labelBackgroundColor=none;startArrow=none;startFill=0;startSize=8;endArrow=open;endFill=0;endSize=16;fontFamily=Verdana;fontSize=12;dashed=1;entryX=0;entryY=0.5;entryDx=0;entryDy=0;entryPerimeter=0;exitX=1;exitY=0.5;exitDx=0;exitDy=0;" edge="1" parent="1" source="39150e848f15840c-10" target="mJqfasri3hnP24MwwVVL-4">
          <mxGeometry relative="1" as="geometry">
            <mxPoint x="835" y="512.5" as="targetPoint" />
            <mxPoint x="920" y="512.5" as="sourcePoint" />
          </mxGeometry>
        </mxCell>
        <mxCell id="mJqfasri3hnP24MwwVVL-8" value="socket" style="html=1;whiteSpace=wrap;" vertex="1" parent="1">
          <mxGeometry x="378.75" y="211" width="37.5" height="20" as="geometry" />
        </mxCell>
        <mxCell id="mJqfasri3hnP24MwwVVL-12" value="" style="endArrow=none;html=1;rounded=0;entryX=0.5;entryY=1;entryDx=0;entryDy=0;exitX=0.5;exitY=0;exitDx=0;exitDy=0;" edge="1" parent="1" source="mJqfasri3hnP24MwwVVL-1" target="mJqfasri3hnP24MwwVVL-8">
          <mxGeometry width="50" height="50" relative="1" as="geometry">
            <mxPoint x="410" y="290" as="sourcePoint" />
            <mxPoint x="460" y="240" as="targetPoint" />
          </mxGeometry>
        </mxCell>
        <mxCell id="mJqfasri3hnP24MwwVVL-13" value="" style="endArrow=none;html=1;rounded=0;entryX=0.5;entryY=1;entryDx=0;entryDy=0;exitX=0.5;exitY=0;exitDx=0;exitDy=0;" edge="1" parent="1" source="mJqfasri3hnP24MwwVVL-8" target="39150e848f15840c-5">
          <mxGeometry width="50" height="50" relative="1" as="geometry">
            <mxPoint x="408" y="265" as="sourcePoint" />
            <mxPoint x="408" y="250" as="targetPoint" />
          </mxGeometry>
        </mxCell>
      </root>
    </mxGraphModel>
  </diagram>
</mxfile>
